<svg xmlns="http://www.w3.org/2000/svg" xmlns:xlink="http://www.w3.org/1999/xlink" width="16" height="20" viewBox="0 0 16 20"><defs><path id="19h9a" d="M1283.99 67.6c-.02.07-.4 1.44-1.38 2.83-.81 1.22-1.66 2.42-3.01 2.44-1.31.03-1.76-.78-3.26-.78-1.52 0-1.99.76-3.25.81-1.28.05-2.26-1.3-3.1-2.52-1.69-2.48-3-6.98-1.24-10.05a4.82 4.82 0 0 1 4.06-2.5c1.28-.02 2.48.88 3.27.88.78 0 2.25-1.08 3.78-.92.63.02 2.45.26 3.62 1.98-.1.06-2.16 1.28-2.14 3.8a4.37 4.37 0 0 0 2.65 4.03zm-8.07-10.04a4.27 4.27 0 0 1 1.04-3.07 4.48 4.48 0 0 1 2.91-1.52 4.48 4.48 0 0 1-1 3.2c-.72.83-1.84 1.48-2.95 1.4z"/></defs><g><g transform="translate(-1268 -53)"><use fill="#fff" xlink:href="#19h9a"/></g></g></svg>