<svg width="894" height="1171" xmlns="http://www.w3.org/2000/svg" xmlns:xlink="http://www.w3.org/1999/xlink">
 <defs>
  <path d="M 875.5216674804688 1134.0009765625 A 17.5 17.5 0 1 1 875.5216674804688 1169.0009765625 A 17.5 17.5 0 0 1 875.5216674804688 1134.0009765625 z" id="imagebot_10"/>
  <path d="M 867.5616674804687 1166.4309765625 C 868.1316674804688 1167.0009765625 868.1316674804688 1167.9309765625 867.5616674804687 1168.5009765625 L 865.5016674804688 1170.5709765625 C 864.9416674804687 1171.1409765625 864.0216674804688 1171.1409765625 863.4516674804687 1170.5709765625 A 1.47 1.47 0 0 1 863.4516674804687 1168.5009765625 L 865.5016674804688 1166.4309765625 A 1.45 1.45 0 0 1 867.5616674804687 1166.4309765625 z" id="imagebot_6"/>
  <path d="M 883.4816674804688 1166.4309765625 A 1.45 1.45 0 0 0 883.4816674804688 1168.4809765625 L 885.5416674804687 1170.5409765625 A 1.45 1.45 0 1 0 887.5916674804688 1168.4809765625 L 885.5416674804687 1166.4309765625 A 1.46 1.46 0 0 0 883.4816674804688 1166.4309765625 z" id="imagebot_4"/>
  <path d="M 875.5016674804688 1145.0009765625 C 876.3216674804687 1145.0009765625 876.9816674804688 1145.6209765625 876.9816674804688 1146.4009765625 L 876.9816674804688 1150.0209765625 L 883.5416674804687 1150.0209765625 C 884.3516674804688 1150.0209765625 885.0116674804688 1150.6909765625 885.0116674804688 1151.5109765625 C 885.0116674804688 1152.3209765625 884.3516674804688 1152.9909765625 883.5416674804687 1152.9909765625 L 875.5016674804688 1152.9909765625 A 1.44 1.44 0 0 1 874.0316674804687 1151.5109765625 L 874.0316674804687 1146.3909765625 C 874.0316674804687 1145.6209765625 874.6916674804687 1144.9909765625 875.5016674804688 1144.9909765625 L 875.5016674804688 1145.0009765625 z" id="imagebot_11"/>
  <path d="M 858.3616674804688 1139.0109765625 L 858.2016674804687 1138.7809765625 A 8.5 8.5 0 0 1 861.2016674804687 1127.0909765625 A 8.63 8.63 0 0 1 872.9016674804687 1130.3609765625 L 873.0316674804687 1130.6109765625 S 868.6316674804688 1131.5509765625 865.1216674804688 1133.5709765625 A 31.54 31.54 0 0 0 858.3616674804688 1139.0109765625 z" id="imagebot_8"/>
  <path d="M 892.6816674804687 1139.0109765625 L 892.8416674804688 1138.7809765625 A 8.5 8.5 0 0 0 889.8416674804688 1127.0909765625 A 8.63 8.63 0 0 0 878.1416674804688 1130.3609765625 L 878.0116674804688 1130.6109765625 S 882.4116674804687 1131.5509765625 885.9216674804687 1133.5709765625 A 31.54 31.54 0 0 1 892.6816674804687 1139.0109765625 z" id="imagebot_7"/>
  <path d="M 875.5016674804688 1145.0009765625 C 876.3216674804687 1145.0009765625 876.9816674804688 1145.6209765625 876.9816674804688 1146.4009765625 L 876.9816674804688 1150.0209765625 L 883.5416674804687 1150.0209765625 C 884.3516674804688 1150.0209765625 885.0116674804688 1150.6909765625 885.0116674804688 1151.5109765625 C 885.0116674804688 1152.3209765625 884.3516674804688 1152.9909765625 883.5416674804687 1152.9909765625 L 875.5016674804688 1152.9909765625 A 1.44 1.44 0 0 1 874.0316674804687 1151.5109765625 L 874.0316674804687 1146.3909765625 C 874.0316674804687 1145.6209765625 874.6916674804687 1144.9909765625 875.5016674804688 1144.9909765625 L 875.5016674804688 1145.0009765625 z" id="imagebot_2"/>
  <clipPath id="imagebot_9">
   <use id="imagebot_12" xlink:href="#imagebot_10" fill="#fff"/>
  </clipPath>
  <clipPath id="imagebot_5">
   <use id="imagebot_13" xlink:href="#imagebot_6" fill="#fff"/>
  </clipPath>
  <clipPath id="imagebot_3">
   <use id="imagebot_14" xlink:href="#imagebot_4" fill="#fff"/>
  </clipPath>
  <clipPath id="imagebot_1">
   <use id="imagebot_15" xlink:href="#imagebot_11" fill="#fff"/>
  </clipPath>
 </defs>
 <g>
  <title>Layer 1</title>
  <g transform="translate(0.0216675 -0.999023)" id="imagebot_16">
   <g id="imagebot_17" transform="translate(-857 -1126)">
    <g id="imagebot_18">
     <use id="imagebot_19" xlink:href="#imagebot_10" clip-path="url(#imagebot_9)" stroke-width="6" stroke-miterlimit="50" stroke="#17d617" fill-opacity="0" fill="#fff"/>
    </g>
    <g id="imagebot_20">
     <use id="imagebot_21" xlink:href="#imagebot_8" stroke-width="3" stroke-miterlimit="50" stroke="#17d617" fill-opacity="0" fill="#fff"/>
    </g>
    <g id="imagebot_22">
     <use id="imagebot_23" xlink:href="#imagebot_7" stroke-width="3" stroke-miterlimit="50" stroke="#17d617" fill-opacity="0" fill="#fff"/>
    </g>
    <g id="imagebot_24">
     <use id="imagebot_25" xlink:href="#imagebot_6" clip-path="url(#imagebot_5)" stroke-width="6" stroke-miterlimit="50" stroke="#17d617" fill-opacity="0" fill="#fff"/>
    </g>
    <g id="imagebot_26">
     <use id="imagebot_27" xlink:href="#imagebot_4" clip-path="url(#imagebot_3)" stroke-width="6" stroke-miterlimit="50" stroke="#17d617" fill-opacity="0" fill="#fff"/>
    </g>
    <g id="imagebot_28">
     <use id="imagebot_29" xlink:href="#imagebot_2" clip-path="url(#imagebot_1)" stroke-width="6" stroke-miterlimit="50" stroke="#17d617" fill-opacity="0" fill="#fff"/>
    </g>
   </g>
  </g>
 </g>
</svg>