<svg xmlns="http://www.w3.org/2000/svg" xmlns:xlink="http://www.w3.org/1999/xlink" width="42" height="51" viewBox="0 0 42 51"><defs><path id="v5ira" d="M255 1146a4 4 0 0 1 4-4h34a4 4 0 0 1 4 4v23a4 4 0 0 1-4 4h-34a4 4 0 0 1-4-4z"/><path id="v5irb" d="M275 1122h2a15 15 0 0 1 15 15v8h-32v-8a15 15 0 0 1 15-15z"/><path id="v5irc" d="M276 1127a11 11 0 0 1 11 11v7h-22v-7a11 11 0 0 1 11-11z"/><path id="v5ird" d="M268.58 1155.35a1.5 1.5 0 0 1 2.12 0l3.89 3.9 6.71-6.72a1.5 1.5 0 0 1 2.12 2.12l-7.77 7.77a1.5 1.5 0 0 1-2.12 0l-4.95-4.95a1.5 1.5 0 0 1 0-2.12z"/><clipPath id="v5ire"><use fill="#fff" xlink:href="#v5ira"/></clipPath><clipPath id="v5irf"><use fill="#fff" xlink:href="#v5irb"/></clipPath><clipPath id="v5irg"><use fill="#fff" xlink:href="#v5irc"/></clipPath><clipPath id="v5irh"><use fill="#fff" xlink:href="#v5ird"/></clipPath></defs><g><g transform="translate(-255 -1122)"><g><use fill="#fff" fill-opacity="0" stroke="#267df4" stroke-miterlimit="50" stroke-width="6" clip-path="url(&quot;#v5ire&quot;)" xlink:href="#v5ira"/></g><g><use fill="#fff" fill-opacity="0" stroke="#267df4" stroke-miterlimit="50" stroke-width="6" clip-path="url(&quot;#v5irf&quot;)" xlink:href="#v5irb"/></g><g><use fill="#fff" fill-opacity="0" stroke="#267df4" stroke-miterlimit="50" stroke-width="6" clip-path="url(&quot;#v5irg&quot;)" xlink:href="#v5irc"/></g><g><use fill="#fff" fill-opacity="0" stroke="#267df4" stroke-miterlimit="50" stroke-width="6" clip-path="url(&quot;#v5irh&quot;)" xlink:href="#v5ird"/></g></g></g></svg>